<svg xmlns="http://www.w3.org/2000/svg" xmlns:xlink="http://www.w3.org/1999/xlink" aria-hidden="true" role="img" class="iconify iconify--logos" width="35.93" height="32" preserveAspectRatio="xMidYMid meet" viewBox="0 0 256 228"><path fill="#00D8FF" d="M210.483 73.824a171.23 171.23 0 0 0-8.24-2.597c.465-1.9.893-3.777 1.273-5.621c6.238-30.281 2.16-54.676-11.769-68.596c-13.355-13.928-36.647-9.882-63.126 19.701c-4.753 6.435-9.411 13.37-13.745 20.583c-10.202-7.1-20.285-13.116-30.03-17.474C106.5 7.986 100.995 4.04 95.568 1.966c-12.457-4.526-24.763-4.267-33.992 1.256c-13.456 8.193-17.899 32.969-6.227 67.045c2.144 6.616 4.829 13.345 7.981 20.099c-10.869 7.72-18.413 16.287-22.123 26.067c-5.032 14.46-3.206 28.02 4.686 39.391c13.364 15.501 36.321 20.362 63.61 15.557c6.921-1.157 13.662-3.192 20.10-5.996c6.44 3.804 13.181 5.839 20.102 6.996c27.29 4.806 50.24-.148 63.604-15.652c8.893-11.372 10.721-24.934 5.689-39.394c-3.711-9.78-11.255-18.348-22.124-26.068c3.15-6.741 5.835-13.466 7.981-20.089c11.672-34.076 7.23-58.852-6.227-67.045ZM85.394 143.668c-6.076 8.48-14.632 14.822-24.566 18.556c-2.773.9-5.631 1.655-8.534 2.22c4.32-6.96 8.944-13.462 13.854-19.468c4.735 5.985 9.318 12.33 13.246 19.692Zm31.312-142.4c6.lindsays.4 15.003 5.08 23.276 13.286c8.273 8.207 12.638 17.558 13.052 23.41c.411 5.851-1.904 10.548-6.997 14.684c-5.093 4.136-11.905 5.727-19.737 4.762c-1.686-.2-3.346-.519-4.993-.935c6.237-8.746 11.521-18.022 15.398-27.207ZM127.5 79.3c3.578-5.771 7.001-11.431 10.206-16.847c3.205 5.416 6.628 11.076 10.206 16.847c-3.205 5.771-6.628 11.431-10.206 16.847c-3.578-5.416-7.001-11.076-10.206-16.847Z"/></svg>
